<svg width="30" height="16" viewBox="0 0 30 16" fill="none" xmlns="http://www.w3.org/2000/svg">
<path d="M1.88125 0.598817C2.37837 0.599255 2.85496 0.797084 3.20625 1.14882L12.7963 10.7388C13.0864 11.0291 13.431 11.2593 13.8102 11.4164C14.1894 11.5735 14.5958 11.6544 15.0063 11.6544C15.4167 11.6544 15.8231 11.5735 16.2023 11.4164C16.5815 11.2593 16.9261 11.0291 17.2163 10.7388L26.7938 1.16131C27.1474 0.819768 27.621 0.630779 28.1126 0.63505C28.6042 0.639323 29.0745 0.836515 29.4222 1.18416C29.7698 1.5318 29.967 2.00207 29.9713 2.49369C29.9755 2.98531 29.7865 3.45894 29.445 3.81257L19.875 13.3901C18.5847 14.6779 16.8361 15.4011 15.0131 15.4011C13.1901 15.4011 11.4416 14.6779 10.1513 13.3901L0.555002 3.80007C0.292607 3.53784 0.113894 3.20367 0.041476 2.83984C-0.0309416 2.47602 0.00619101 2.09889 0.148175 1.75617C0.29016 1.41345 0.530614 1.12056 0.839113 0.91454C1.14761 0.708525 1.51029 0.598649 1.88125 0.598817Z" fill="#727272"/>
</svg>
