<svg width="30" height="30" viewBox="0 0 30 30" fill="none" xmlns="http://www.w3.org/2000/svg" id="calendar">
<g clip-path="url(#clip0_13_128)">
<path d="M23.125 2.5H22.5V1.875C22.5 1.37772 22.3025 0.900805 21.9508 0.549175C21.5992 0.197544 21.1223 0 20.625 0V0C20.1277 0 19.6508 0.197544 19.2992 0.549175C18.9475 0.900805 18.75 1.37772 18.75 1.875V2.5H11.25V1.875C11.25 1.37772 11.0525 0.900805 10.7008 0.549175C10.3492 0.197544 9.87228 0 9.375 0V0C8.87772 0 8.40081 0.197544 8.04917 0.549175C7.69754 0.900805 7.5 1.37772 7.5 1.875V2.5H6.875C5.05164 2.5 3.30295 3.22433 2.01364 4.51364C0.724328 5.80295 0 7.55164 0 9.375L0 23.125C0 24.9484 0.724328 26.697 2.01364 27.9864C3.30295 29.2757 5.05164 30 6.875 30H23.125C24.9484 30 26.697 29.2757 27.9864 27.9864C29.2757 26.697 30 24.9484 30 23.125V9.375C30 7.55164 29.2757 5.80295 27.9864 4.51364C26.697 3.22433 24.9484 2.5 23.125 2.5ZM23.125 26.25H6.875C6.0462 26.25 5.25134 25.9208 4.66529 25.3347C4.07924 24.7487 3.75 23.9538 3.75 23.125V12.5H26.25V23.125C26.25 23.9538 25.9208 24.7487 25.3347 25.3347C24.7487 25.9208 23.9538 26.25 23.125 26.25Z" fill="white"/>
</g>
<defs>
<clipPath id="clip0_13_128">
<rect width="30" height="30" fill="white"/>
</clipPath>
</defs>
</svg>
