<svg width="30" height="30" viewBox="0 0 30 30" fill="none" xmlns="http://www.w3.org/2000/svg" id="dolor">
<g clip-path="url(#clip0_13_125)">
<path d="M23.125 11.875C23.6223 11.875 24.0992 11.6775 24.4508 11.3258C24.8025 10.9742 25 10.4973 25 10V9.14125C24.9977 7.38059 24.2972 5.69271 23.0523 4.44773C21.8073 3.20276 20.1194 2.50232 18.3587 2.5H16.875V1.875C16.875 1.37772 16.6775 0.900805 16.3258 0.549175C15.9742 0.197544 15.4973 0 15 0C14.5027 0 14.0258 0.197544 13.6742 0.549175C13.3225 0.900805 13.125 1.37772 13.125 1.875V2.5H11.6412C10.0468 2.49762 8.5048 3.06893 7.29681 4.10954C6.08883 5.15016 5.29552 6.59063 5.06183 8.16782C4.82813 9.745 5.16964 11.3536 6.02397 12.6998C6.87829 14.046 8.18842 15.0399 9.715 15.5L13.125 16.4325V23.75H11.6412C10.8747 23.749 10.1399 23.4441 9.59792 22.9021C9.05592 22.3601 8.75099 21.6253 8.75 20.8587V20C8.75 19.5027 8.55246 19.0258 8.20082 18.6742C7.84919 18.3225 7.37228 18.125 6.875 18.125C6.37772 18.125 5.9008 18.3225 5.54917 18.6742C5.19754 19.0258 5 19.5027 5 20V20.8587C5.00231 22.6194 5.70276 24.3073 6.94773 25.5523C8.19271 26.7972 9.88059 27.4977 11.6412 27.5H13.125V28.125C13.125 28.6223 13.3225 29.0992 13.6742 29.4508C14.0258 29.8025 14.5027 30 15 30C15.4973 30 15.9742 29.8025 16.3258 29.4508C16.6775 29.0992 16.875 28.6223 16.875 28.125V27.5H18.3587C19.9532 27.5024 21.4952 26.9311 22.7032 25.8905C23.9112 24.8498 24.7045 23.4094 24.9382 21.8322C25.1719 20.255 24.8304 18.6464 23.976 17.3002C23.1217 15.954 21.8116 14.9601 20.285 14.5L16.875 13.57V6.25H18.3587C19.1253 6.25099 19.8601 6.55592 20.4021 7.09792C20.9441 7.63992 21.249 8.37475 21.25 9.14125V10C21.25 10.4973 21.4475 10.9742 21.7992 11.3258C22.1508 11.6775 22.6277 11.875 23.125 11.875ZM19.2275 18.0988C19.8869 18.3066 20.4501 18.7437 20.815 19.331C21.1799 19.9183 21.3223 20.6168 21.2166 21.3001C21.1108 21.9833 20.7637 22.6061 20.2383 23.0555C19.7129 23.505 19.0439 23.7513 18.3525 23.75H16.875V17.4562L19.2275 18.0988ZM13.125 12.5437L10.7725 11.9012C10.1136 11.6936 9.55075 11.257 9.18583 10.6703C8.82091 10.0837 8.67801 9.38585 8.78298 8.70301C8.88795 8.02016 9.23386 7.39745 9.75813 6.94751C10.2824 6.49758 10.9504 6.25015 11.6412 6.25H13.125V12.5437Z" fill="white"/>
</g>
<defs>
<clipPath id="clip0_13_125">
<rect width="30" height="30" fill="white"/>
</clipPath>
</defs>
</svg>
