<svg width="50" height="50" viewBox="0 0 50 50" fill="none" xmlns="http://www.w3.org/2000/svg" id="facebook">
<g clip-path="url(#clip0_128_2)">
<path d="M50 25.1519C50 37.6289 40.8458 47.9727 28.8958 49.8498V32.4269H34.7062L35.8125 25.2185H28.8958V20.5414C28.8958 18.5685 29.8625 16.6477 32.9583 16.6477H36.1021V10.5102C36.1021 10.5102 33.2479 10.0227 30.5208 10.0227C24.825 10.0227 21.1042 13.4748 21.1042 19.7227V25.2164H14.7729V32.4248H21.1042V49.8477C9.15625 47.9685 0 37.6269 0 25.1519C0 11.3456 11.1937 0.151855 25 0.151855C38.8062 0.151855 50 11.3435 50 25.1519Z" fill="white"/>
</g>
<defs>
<clipPath id="clip0_128_2">
<rect width="50" height="50" fill="white"/>
</clipPath>
</defs>
</svg>
