<svg width="26" height="26" viewBox="0 0 26 26" xmlns="http://www.w3.org/2000/svg" id="favorite">
<path d="M11.0979 3.09017C11.6966 1.24755 14.3034 1.24755 14.9021 3.09017L15.8657 6.05573C16.4012 7.70382 17.937 8.81966 19.6699 8.81966H22.7881C24.7255 8.81966 25.5311 11.2989 23.9637 12.4377L21.441 14.2705C20.039 15.2891 19.4524 17.0946 19.9879 18.7426L20.9515 21.7082C21.5502 23.5508 19.4412 25.0831 17.8738 23.9443L15.3511 22.1115C13.9492 21.0929 12.0508 21.0929 10.6489 22.1115L8.1262 23.9443C6.55878 25.0831 4.44982 23.5508 5.04852 21.7082L6.01209 18.7426C6.54759 17.0946 5.96095 15.2891 4.559 14.2705L2.03635 12.4377C0.468922 11.2989 1.27447 8.81966 3.21192 8.81966H6.33009C8.063 8.81966 9.59882 7.70382 10.1343 6.05573L11.0979 3.09017Z" stroke-width="2"/>
</svg>
