<svg width="28" height="28" viewBox="0 0 28 28" fill="none" xmlns="http://www.w3.org/2000/svg">
<path d="M27.6582 26.0087L20.6943 19.0449C22.5921 16.7239 23.5251 13.7623 23.3005 10.7727C23.0758 7.7831 21.7107 4.99419 19.4875 2.98284C17.2643 0.971496 14.353 -0.108392 11.3559 -0.0334547C8.3588 0.0414824 5.50514 1.26551 3.38521 3.38545C1.26527 5.50539 0.0412383 8.35904 -0.0336988 11.3561C-0.108636 14.3533 0.971252 17.2645 2.9826 19.4877C4.99394 21.711 7.78286 23.0761 10.7725 23.3007C13.7621 23.5253 16.7237 22.5923 19.0447 20.6946L26.0085 27.6584C26.2285 27.8709 26.5232 27.9885 26.8291 27.9859C27.135 27.9832 27.4276 27.8605 27.6439 27.6442C27.8603 27.4279 27.983 27.1353 27.9856 26.8294C27.9883 26.5235 27.8707 26.2288 27.6582 26.0087ZM11.6667 21.0002C9.8207 21.0002 8.01619 20.4528 6.48133 19.4273C4.94647 18.4017 3.7502 16.9441 3.04378 15.2386C2.33736 13.5332 2.15253 11.6565 2.51266 9.84606C2.87279 8.03557 3.7617 6.37253 5.06699 5.06724C6.37228 3.76195 8.03532 2.87303 9.84581 2.5129C11.6563 2.15278 13.5329 2.33761 15.2384 3.04402C16.9438 3.75044 18.4015 4.94672 19.427 6.48158C20.4526 8.01644 21 9.82094 21 11.6669C20.9972 14.1414 20.013 16.5138 18.2633 18.2635C16.5135 20.0132 14.1412 20.9975 11.6667 21.0002Z" fill="#D9D9D9"/>
</svg>
