<svg width="58" height="47" viewBox="0 0 58 47"  xmlns="http://www.w3.org/2000/svg" id="logo">
<path d="M8.42858 16.1875L2.71429 22.6562H54.7143L49 16.1875H8.42858Z" stroke="#006179"/>
<path d="M9.5714 16.1875H49L42.7143 1H15.2857L7.85712 16.1875H9.5714ZM9.5714 16.1875L15.8571 3.25H41.5714L46.7143 15.9226L9.5714 16.1875Z" stroke="#006179"/>
<path d="M5.00001 24.625H2.71429V29.125H5.00001V24.625Z" stroke="#006179"/>
<path d="M14.7143 22.9375V30.8125H2.71429V33.0625H18.1429V22.9375M6.71429 24.625H13V29.125H6.71429V24.625Z" stroke="#006179"/>
<path d="M39.8571 22.9375V33.0625H55.2857V30.8125H42.7143V22.9375M19.8571 24.625H22.1428V33.0625H19.8571V24.625ZM23.8571 24.625H26.1428V33.0625H23.8571V24.625ZM27.8571 24.625H30.1428V33.0625H27.8571V24.625ZM31.8571 24.625H34.1428V33.0625H31.8571V24.625ZM35.8571 24.625H38.1428V33.0625H35.8571V24.625Z" stroke="#006179"/>
<path d="M51.2857 24.625H45V29.125H51.2857V24.625Z" stroke="#006179"/>
<path d="M55.2857 24.625H53V29.125H55.2857V24.625Z" stroke="#006179"/>
<path d="M54.1429 11.125H49.5714L50.7143 14.5H54.1429V11.125Z" stroke="#006179"/>
<path d="M8.42857 11.125H2.71429V14.5H7.28571L8.42857 11.125Z" stroke="#006179"/>
<path d="M1 39.8125V34.75H57V39.8125H1Z" stroke="#006179"/>
<path d="M13 41.5H5V46H13V41.5Z" stroke="#006179"/>
<path d="M53 41.5H45V46H53V41.5Z" stroke="#006179"/>
<path d="M39.5714 4.9375H18.1429L13.4523 14.5H43.8571L39.5714 4.9375Z" stroke="#006179"/>
</svg>
