<svg width="30" height="30" viewBox="0 0 30 30" fill="none" xmlns="http://www.w3.org/2000/svg" id="sale">
<path d="M26.9325 0H16.25V3.75H23.5987L0 27.3487L2.65125 30L26.25 6.40125V13.75H30V3.0675C29.999 2.25425 29.6755 1.4746 29.1005 0.899546C28.5254 0.324493 27.7457 0.000992371 26.9325 0V0Z" fill="white"/>
<path d="M8.125 13.75C9.23752 13.75 10.3251 13.4201 11.2501 12.802C12.1751 12.1839 12.8961 11.3054 13.3218 10.2776C13.7476 9.24976 13.859 8.11876 13.6419 7.02762C13.4249 5.93648 12.8891 4.9342 12.1025 4.14753C11.3158 3.36086 10.3135 2.82513 9.22238 2.60809C8.13124 2.39104 7.00024 2.50244 5.97241 2.92818C4.94457 3.35392 4.06607 4.07489 3.44798 4.99992C2.8299 5.92495 2.5 7.01248 2.5 8.125C2.50165 9.61634 3.09482 11.0461 4.14935 12.1007C5.20389 13.1552 6.63367 13.7483 8.125 13.75ZM8.125 6.25C8.49584 6.25 8.85835 6.35997 9.16669 6.566C9.47504 6.77202 9.71536 7.06486 9.85727 7.40747C9.99919 7.75008 10.0363 8.12708 9.96397 8.4908C9.89163 8.85451 9.71305 9.1886 9.45083 9.45083C9.1886 9.71305 8.85451 9.89163 8.49079 9.96397C8.12708 10.0363 7.75008 9.99919 7.40747 9.85728C7.06486 9.71536 6.77202 9.47504 6.56599 9.1667C6.35997 8.85835 6.25 8.49584 6.25 8.125C6.25 7.62772 6.44754 7.15081 6.79917 6.79918C7.15081 6.44755 7.62772 6.25 8.125 6.25Z" fill="white"/>
<path d="M21.875 16.25C20.7625 16.25 19.6749 16.5799 18.7499 17.198C17.8249 17.8161 17.1039 18.6946 16.6782 19.7224C16.2524 20.7502 16.141 21.8812 16.3581 22.9724C16.5751 24.0635 17.1109 25.0658 17.8975 25.8525C18.6842 26.6391 19.6865 27.1749 20.7776 27.3919C21.8688 27.609 22.9998 27.4976 24.0276 27.0718C25.0554 26.6461 25.9339 25.9251 26.552 25.0001C27.1701 24.0751 27.5 22.9875 27.5 21.875C27.4983 20.3837 26.9052 18.9539 25.8507 17.8994C24.7961 16.8448 23.3663 16.2517 21.875 16.25ZM21.875 23.75C21.5042 23.75 21.1417 23.64 20.8333 23.434C20.525 23.228 20.2846 22.9351 20.1427 22.5925C20.0008 22.2499 19.9637 21.8729 20.036 21.5092C20.1084 21.1455 20.287 20.8114 20.5492 20.5492C20.8114 20.287 21.1455 20.1084 21.5092 20.036C21.8729 19.9637 22.2499 20.0008 22.5925 20.1427C22.9351 20.2846 23.228 20.525 23.434 20.8333C23.64 21.1416 23.75 21.5042 23.75 21.875C23.75 22.3723 23.5525 22.8492 23.2008 23.2008C22.8492 23.5525 22.3723 23.75 21.875 23.75Z" fill="white"/>
</svg>
