<svg width="31" height="31" viewBox="0 0 31 31" fill="none" xmlns="http://www.w3.org/2000/svg">
<path d="M7.90125 24.875H14.5537L18.9525 29.2688C19.1889 29.5065 19.47 29.6951 19.7795 29.8238C20.0891 29.9525 20.421 30.0188 20.7562 30.0187C20.9768 30.0184 21.1965 29.9903 21.41 29.935C21.8415 29.8261 22.2368 29.6054 22.5558 29.2951C22.8749 28.9848 23.1066 28.5958 23.2275 28.1675L30.9862 1.78125L7.90125 24.875Z" fill="#D9D9D9"/>
<path d="M6.10873 23.1251L29.215 0.0151367L2.84748 7.79139C2.41815 7.91348 2.0282 8.14571 1.71633 8.46502C1.40445 8.78434 1.18148 9.17965 1.06954 9.61174C0.957604 10.0438 0.960585 10.4977 1.07819 10.9283C1.19579 11.3588 1.42394 11.7512 1.73998 12.0664L6.10873 16.4314V23.1251Z" fill="#D9D9D9"/>
</svg>
