<svg width="16" height="30" viewBox="0 0 16 30" fill="none" xmlns="http://www.w3.org/2000/svg">
<path d="M15.4013 1.88122C15.4008 2.37834 15.203 2.85493 14.8513 3.20622L5.26125 12.7962C4.97098 13.0864 4.74072 13.431 4.58362 13.8101C4.42653 14.1893 4.34567 14.5958 4.34567 15.0062C4.34567 15.4167 4.42653 15.8231 4.58362 16.2023C4.74072 16.5815 4.97098 16.926 5.26125 17.2162L14.8388 26.7937C15.1803 27.1474 15.3693 27.621 15.365 28.1126C15.3607 28.6042 15.1636 29.0745 14.8159 29.4221C14.4683 29.7698 13.998 29.967 13.5064 29.9712C13.0148 29.9755 12.5411 29.7865 12.1875 29.445L2.61 19.875C1.32221 18.5846 0.598946 16.8361 0.598946 15.0131C0.598946 13.1901 1.32221 11.4416 2.61 10.1512L12.2 0.554972C12.4622 0.292577 12.7964 0.113864 13.1602 0.0414461C13.5241 -0.0309716 13.9012 0.00616108 14.2439 0.148145C14.5866 0.29013 14.8795 0.530584 15.0855 0.839083C15.2915 1.14758 15.4014 1.51026 15.4013 1.88122Z" fill="white"/>
</svg>
