<svg width="50" height="50" viewBox="0 0 50 50" fill="none" xmlns="http://www.w3.org/2000/svg" id="whatsup">
<g clip-path="url(#clip0_128_5)">
<path fill-rule="evenodd" clip-rule="evenodd" d="M42.6312 7.26667C37.9521 2.58333 31.7312 0.00208333 25.1042 0C11.4479 0 0.333327 11.1125 0.327077 24.775C0.324994 29.1417 1.46666 33.4042 3.63541 37.1625L0.118744 50L13.2521 46.5542C16.8708 48.5292 20.9458 49.5687 25.0917 49.5708H25.1021C38.7562 49.5708 49.8729 38.4562 49.8792 24.7937C49.8833 18.175 47.3083 11.9479 42.6312 7.26667ZM25.1042 45.3854H25.0958C21.4 45.3854 17.7771 44.3917 14.6146 42.5146L13.8625 42.0687L6.06874 44.1125L8.14999 36.5125L7.66041 35.7333C5.59791 32.4542 4.51041 28.6646 4.51249 24.775C4.51666 13.4208 13.7562 4.18333 25.1146 4.18333C30.6146 4.18333 35.7854 6.32917 39.6729 10.2208C43.5604 14.1146 45.7 19.2875 45.6979 24.7896C45.6917 36.1479 36.4542 45.3854 25.1042 45.3854ZM36.4 29.9625C35.7812 29.6521 32.7375 28.1542 32.1687 27.9479C31.6021 27.7417 31.1896 27.6375 30.775 28.2562C30.3604 28.875 29.1771 30.2708 28.8146 30.6854C28.4542 31.0979 28.0917 31.15 27.4729 30.8396C26.8542 30.5292 24.8583 29.8771 22.4937 27.7667C20.6542 26.125 19.4104 24.0979 19.05 23.4771C18.6896 22.8562 19.0125 22.5229 19.3208 22.2146C19.6 21.9375 19.9396 21.4917 20.25 21.1292C20.5625 20.7708 20.6646 20.5125 20.8729 20.0979C21.0792 19.6854 20.9771 19.3229 20.8208 19.0125C20.6646 18.7042 19.4271 15.6562 18.9125 14.4167C18.4104 13.2083 17.9 13.3729 17.5187 13.3542C17.1583 13.3354 16.7458 13.3333 16.3312 13.3333C15.9187 13.3333 15.2479 13.4875 14.6812 14.1083C14.1146 14.7292 12.5146 16.2271 12.5146 19.2729C12.5146 22.3208 14.7333 25.2646 15.0417 25.6771C15.35 26.0896 19.4062 32.3438 25.6167 35.025C27.0937 35.6625 28.2479 36.0437 29.1458 36.3292C30.6292 36.8 31.9792 36.7333 33.0458 36.575C34.2354 36.3979 36.7083 35.0771 37.225 33.6312C37.7417 32.1854 37.7417 30.9437 37.5854 30.6875C37.4312 30.4271 37.0187 30.2729 36.4 29.9625Z" fill="white"/>
</g>
<defs>
<clipPath id="clip0_128_5">
<rect width="50" height="50" fill="white"/>
</clipPath>
</defs>
</svg>
